<svg id="Layer_1" data-name="Layer 1" xmlns="http://www.w3.org/2000/svg" viewBox="0 0 2000 2000"><defs><style>.cls-1{fill:#fff;}</style></defs><title>LogoDelta W</title><path class="cls-1" d="M966.29,416.2l269.43,466.6c1.1-1.66,1.84-2.66,2.46-3.73q109-188,217.9-376,25.66-44.28,51.29-88.59c1.47-2.54,2.87-4,6.24-4q100.48.19,201,.1c1.08,0,2.16.1,4,.19-1.14,2.1-2,3.75-2.92,5.35q-87.54,151-175.1,302.08-99,170.89-198.06,341.78c-1.66,2.87-1.69,5,0,7.86q99.24,171.61,198.32,343.3l95.62,165.61c.23.39.37.83.72,1.6H295.26Zm352.06,971.64L966.28,778.1,614.21,1387.84Z"/></svg>